General
Unique ID : 8569043123775481674558882870306344219 (0x6725671D915E9A52F525B810A910D1B)
Complete name : /home/rut0rr3nt/torrents/rtorrent/Peter.Rabbit.2018.MultiSinh.BluRay.1080p.DTS-HD.MA-5.1.x264-DrSi/Peter.Rabbit.2018.MultiSinh.BluRay.1080p.DTS-HD.MA-5.1.x264-DrSi.mkv
Format : Matroska
Format version : Version 4 / Version 2
File size : 15.7 GiB
Duration : 1h 34mn
Overall bit rate : 23.7 Mbps
Encoded date : UTC 2018-08-11 02:15:18
Writing application : mkvmerge v25.0.0 ('Prog Noir') 64-bit
Writing library : libebml v1.3.6 + libmatroska v1.4.9

Video
ID : 1
Format : AVC
Format/Info : Advanced Video Codec
Format profile : High@L4.1
Format settings, CABAC : Yes
Format settings, ReFrames : 5 frames
Codec ID : V_MPEG4/ISO/AVC
Duration : 1h 34mn
Bit rate : 12.9 Mbps
Width : 1 920 pixels
Height : 804 pixels
Display aspect ratio : 2.40:1
Frame rate mode : Constant
Frame rate : 23.976 (24000/1001) fps
Color space : YUV
Chroma subsampling : 4:2:0
Bit depth : 8 bits
Scan type : Progressive
Bits/(Pixel*Frame) : 0.350
Stream size : 8.56 GiB (55%)
Title : Toyan
Writing library : x264 core 155 r2901 7d0ff22
Encoding settings : cabac=1 / ref=5 / deblock=1:-3:-3 / analyse=0x3:0x133 / me=umh / subme=11 / psy=0 / mixed_ref=1 / me_range=24 / chroma_me=1 / trellis=2 / 8x8dct=1 / cqm=0 / deadzone=21,11 / fast_pskip=1 / chroma_qp_offset=0 / threads=12 / lookahead_threads=2 / sliced_threads=0 / nr=0 / decimate=0 / interlaced=0 / bluray_compat=0 / stitchable=1 / constrained_intra=0 / bframes=8 / b_pyramid=2 / b_adapt=2 / b_bias=0 / direct=3 / weightb=1 / open_gop=0 / weightp=2 / keyint=240 / keyint_min=23 / scenecut=40 / intra_refresh=0 / rc_lookahead=60 / rc=2pass / mbtree=1 / bitrate=12950 / ratetol=1.0 / qcomp=0.60 / qpmin=9 / qpmax=51 / qpstep=4 / cplxblur=20.0 / qblur=0.5 / vbv_maxrate=50000 / vbv_bufsize=50000 / nal_hrd=none / filler=0 / ip_ratio=1.50 / aq=1:0.80
Language : Slovenian
Default : Yes
Forced : No
Color range : Limited
Color primaries : BT.709
Transfer characteristics : BT.709
Matrix coefficients : BT.709

Audio #1
ID : 2
Format : AC-3
Format/Info : Audio Coding 3
Mode extension : CM (complete main)
Format settings, Endianness : Big
Codec ID : A_AC3
Duration : 1h 34mn
Bit rate mode : Constant
Bit rate : 448 Kbps
Channel(s) : 6 channels
Channel positions : Front: L C R, Side: L R, LFE
Sampling rate : 48.0 KHz
Frame rate : 31.250 fps (1536 spf)
Compression mode : Lossy
Stream size : 303 MiB (2%)
Title : DD
Language : Slovenian
Default : No
Forced : No

Audio #2
ID : 3
Format : DTS
Format/Info : Digital Theater Systems
Format profile : MA / Core
Mode : 16
Format settings, Endianness : Big
Codec ID : A_DTS
Duration : 1h 34mn
Bit rate mode : Variable / Constant
Bit rate : 1 920 Kbps / 768 Kbps
Channel(s) : 6 channels
Channel positions : Front: L C R, Side: L R, LFE
Sampling rate : 48.0 KHz
Frame rate : 93.750 fps (512 spf)
Bit depth : 16 bits
Compression mode : Lossless / Lossy
Stream size : 1.28 GiB (8%)
Title : DTS-HD MA 5.1
Language : Slovenian
Default : No
Forced : No

Audio #3
ID : 4
Format : AC-3
Format/Info : Audio Coding 3
Mode extension : CM (complete main)
Format settings, Endianness : Big
Codec ID : A_AC3
Duration : 1h 34mn
Bit rate mode : Constant
Bit rate : 640 Kbps
Channel(s) : 6 channels
Channel positions : Front: L C R, Side: L R, LFE
Sampling rate : 48.0 KHz
Frame rate : 31.250 fps (1536 spf)
Compression mode : Lossy
Stream size : 434 MiB (3%)
Title : DD
Language : Croatian
Default : No
Forced : No

Audio #4
ID : 5
Format : DTS
Format/Info : Digital Theater Systems
Format profile : MA / Core
Mode : 16
Format settings, Endianness : Big
Codec ID : A_DTS
Duration : 1h 34mn
Bit rate mode : Variable / Constant
Bit rate : 1 993 Kbps / 768 Kbps
Channel(s) : 6 channels
Channel positions : Front: L C R, Side: L R, LFE
Sampling rate : 48.0 KHz
Frame rate : 93.750 fps (512 spf)
Bit depth : 16 bits
Compression mode : Lossless / Lossy
Stream size : 1.32 GiB (8%)
Title : DTS-HD MA 5.1
Language : Croatian
Default : No
Forced : No

Audio #5
ID : 6
Format : AC-3
Format/Info : Audio Coding 3
Mode extension : CM (complete main)
Format settings, Endianness : Big
Codec ID : A_AC3
Duration : 1h 34mn
Bit rate mode : Constant
Bit rate : 640 Kbps
Channel(s) : 6 channels
Channel positions : Front: L C R, Side: L R, LFE
Sampling rate : 48.0 KHz
Frame rate : 31.250 fps (1536 spf)
Compression mode : Lossy
Stream size : 434 MiB (3%)
Title : DD
Language : Serbian
Default : No
Forced : No

Audio #6
ID : 7
Format : DTS
Format/Info : Digital Theater Systems
Format profile : MA / Core
Mode : 16
Format settings, Endianness : Big
Codec ID : A_DTS
Duration : 1h 34mn
Bit rate mode : Variable / Constant
Bit rate : 2 048 Kbps / 768 Kbps
Channel(s) : 6 channels
Channel positions : Front: L C R, Side: L R, LFE
Sampling rate : 48.0 KHz
Frame rate : 93.750 fps (512 spf)
Bit depth : 16 bits
Compression mode : Lossless / Lossy
Stream size : 1.33 GiB (9%)
Title : DTS-HD MA 5.1
Language : Serbian
Default : No
Forced : No

Audio #7
ID : 8
Format : AC-3
Format/Info : Audio Coding 3
Mode extension : CM (complete main)
Format settings, Endianness : Big
Codec ID : A_AC3
Duration : 1h 34mn
Bit rate mode : Constant
Bit rate : 640 Kbps
Channel(s) : 6 channels
Channel positions : Front: L C R, Side: L R, LFE
Sampling rate : 48.0 KHz
Frame rate : 31.250 fps (1536 spf)
Compression mode : Lossy
Stream size : 434 MiB (3%)
Title : DD
Language : English
Default : Yes
Forced : No

Audio #8
ID : 9
Format : DTS
Format/Info : Digital Theater Systems
Format profile : MA / Core
Mode : 16
Format settings, Endianness : Big
Codec ID : A_DTS
Duration : 1h 34mn
Bit rate mode : Variable / Constant
Bit rate : 2 222 Kbps / 1 509 Kbps
Channel(s) : 6 channels
Channel positions : Front: L C R, Side: L R, LFE
Sampling rate : 48.0 KHz
Frame rate : 93.750 fps (512 spf)
Bit depth : 16 bits
Compression mode : Lossless / Lossy
Stream size : 1.47 GiB (9%)
Title : DTS-HD MA 5.1
Language : English
Default : No
Forced : No

Text #1
ID : 10
Format : UTF-8
Codec ID : S_TEXT/UTF8
Codec ID/Info : UTF-8 Plain Text
Duration : 1h 33mn
Bit rate : 61 bps
Count of elements : 1259
Stream size : 42.2 KiB (0%)
Title : SRT
Language : Slovenian
Default : Yes
Forced : No

Text #2
ID : 11
Format : PGS
Muxing mode : zlib
Codec ID : S_HDMV/PGS
Codec ID/Info : Picture based subtitle format used on BDs/HD-DVDs
Duration : 1h 33mn
Bit rate : 45.6 Kbps
Count of elements : 3106
Stream size : 30.6 MiB (0%)
Title : SUP
Language : Slovenian
Default : No
Forced : No

Text #3
ID : 12
Format : PGS
Muxing mode : zlib
Codec ID : S_HDMV/PGS
Codec ID/Info : Picture based subtitle format used on BDs/HD-DVDs
Duration : 1h 33mn
Bit rate : 45.2 Kbps
Count of elements : 3106
Stream size : 30.3 MiB (0%)
Title : SUP
Language : Croatian
Default : No
Forced : No

Text #4
ID : 13
Format : PGS
Muxing mode : zlib
Codec ID : S_HDMV/PGS
Codec ID/Info : Picture based subtitle format used on BDs/HD-DVDs
Duration : 1h 33mn
Bit rate : 47.4 Kbps
Count of elements : 3108
Stream size : 31.8 MiB (0%)
Title : SUP
Language : Serbian
Default : No
Forced : No

Text #5
ID : 14
Format : PGS
Muxing mode : zlib
Codec ID : S_HDMV/PGS
Codec ID/Info : Picture based subtitle format used on BDs/HD-DVDs
Duration : 1h 26mn
Bit rate : 53.8 Kbps
Count of elements : 3082
Stream size : 33.1 MiB (0%)
Title : SUP
Language : English
Default : No
Forced : No

Text #6
ID : 15
Format : PGS
Muxing mode : zlib
Codec ID : S_HDMV/PGS
Codec ID/Info : Picture based subtitle format used on BDs/HD-DVDs
Duration : 1h 33mn
Bit rate : 24.6 Kbps
Count of elements : 3114
Stream size : 16.5 MiB (0%)
Title : SUP
Language : Arabic
Default : No
Forced : No

Text #7
ID : 16
Format : PGS
Muxing mode : zlib
Codec ID : S_HDMV/PGS
Codec ID/Info : Picture based subtitle format used on BDs/HD-DVDs
Duration : 1h 33mn
Bit rate : 45.1 Kbps
Count of elements : 3106
Stream size : 30.3 MiB (0%)
Title : SUP
Language : Czech
Default : No
Forced : No

Text #8
ID : 17
Format : PGS
Muxing mode : zlib
Codec ID : S_HDMV/PGS
Codec ID/Info : Picture based subtitle format used on BDs/HD-DVDs
Duration : 1h 33mn
Bit rate : 31.4 Kbps
Count of elements : 2468
Stream size : 21.1 MiB (0%)
Title : SUP
Language : Hebrew
Default : No
Forced : No

Text #9
ID : 18
Format : PGS
Muxing mode : zlib
Codec ID : S_HDMV/PGS
Codec ID/Info : Picture based subtitle format used on BDs/HD-DVDs
Duration : 1h 33mn
Bit rate : 48.0 Kbps
Count of elements : 3108
Stream size : 32.2 MiB (0%)
Title : SUP
Language : Slovak
Default : No
Forced : No

Text #10
ID : 19
Format : PGS
Muxing mode : zlib
Codec ID : S_HDMV/PGS
Codec ID/Info : Picture based subtitle format used on BDs/HD-DVDs
Duration : 1h 33mn
Bit rate : 52.7 Kbps
Count of elements : 3102
Stream size : 35.4 MiB (0%)
Title : SUP
Language : Turkish
Default : No
Forced : No

Menu
00:00:00.000 : :00:00:00.000
00:04:04.786 : :00:04:04.786
00:08:26.297 : :00:08:26.297
00:15:11.702 : :00:15:11.702
00:21:00.634 : :00:21:00.634
00:25:43.584 : :00:25:43.584
00:30:50.265 : :00:30:50.265
00:38:00.862 : :00:38:00.862
00:44:37.341 : :00:44:37.341
00:50:07.671 : :00:50:07.671
00:56:21.295 : :00:56:21.295
01:01:07.581 : :01:01:07.581
01:07:02.560 : :01:07:02.560
01:10:30.810 : :01:10:30.810
01:14:35.137 : :01:14:35.137
01:21:51.990 : :01:21:51.990
